<svg width="25" height="24" viewBox="0 0 25 24" fill="none" xmlns="http://www.w3.org/2000/svg">
<path d="M17.5 15H19.5V17H17.5V15ZM19.5 11H17.5V13H19.5V11Z" fill="black"/>
<path fill-rule="evenodd" clip-rule="evenodd" d="M13.5 7H23.5V21H1.5V3H13.5V7ZM8.5 5H11.5V7H8.5V5ZM11.5 19V17H8.5V19H11.5ZM11.5 15V13H8.5V15H11.5ZM11.5 11V9H8.5V11H11.5ZM21.5 19V9H13.5V11H15.5V13H13.5V15H15.5V17H13.5V19H21.5ZM3.5 19V17H6.5V19H3.5ZM3.5 15H6.5V13H3.5V15ZM6.5 11V9H3.5V11H6.5ZM3.5 7H6.5V5H3.5V7Z" fill="black"/>
</svg>
