<svg width="54" height="54" viewBox="0 0 54 54" fill="none" xmlns="http://www.w3.org/2000/svg">
<path d="M27 33.75C17.055 33.75 9 37.7775 9 42.75V47.25H45V42.75C45 37.7775 36.945 33.75 27 33.75ZM18 20.25C18 22.6369 18.9482 24.9261 20.636 26.614C22.3239 28.3018 24.6131 29.25 27 29.25C29.3869 29.25 31.6761 28.3018 33.364 26.614C35.0518 24.9261 36 22.6369 36 20.25M25.875 4.5C25.2 4.5 24.75 4.9725 24.75 5.625V12.375H22.5V6.75C22.5 6.75 17.4375 8.685 17.4375 15.1875C17.4375 15.1875 15.75 15.5025 15.75 18H38.25C38.1375 15.5025 36.5625 15.1875 36.5625 15.1875C36.5625 8.685 31.5 6.75 31.5 6.75V12.375H29.25V5.625C29.25 4.9725 28.8225 4.5 28.125 4.5H25.875Z" fill="black"/>
</svg>
